<?xml version="1.0" encoding="UTF-8"?>
<svg xmlns="http://www.w3.org/2000/svg" xmlns:xlink="http://www.w3.org/1999/xlink" width="16px" height="21px" viewBox="0 0 16 21" version="1.1">
<g id="surface1">
<path style=" stroke:none;fill-rule:nonzero;fill:rgb(0%,0%,0%);fill-opacity:1;" d="M 15.609375 12.738281 L 8.941406 19.300781 C 8.683594 19.558594 8.339844 19.6875 8 19.6875 C 7.660156 19.6875 7.316406 19.558594 7.058594 19.304688 L 0.390625 12.742188 C -0.128906 12.226562 -0.128906 11.398438 0.390625 10.882812 C 0.910156 10.371094 1.753906 10.371094 2.277344 10.882812 L 6.667969 15.207031 L 6.667969 2.625 C 6.667969 1.898438 7.265625 1.347656 7.960938 1.347656 C 8.660156 1.347656 9.332031 1.898438 9.332031 2.625 L 9.332031 15.207031 L 13.726562 10.886719 C 14.246094 10.371094 15.089844 10.371094 15.609375 10.886719 C 16.132812 11.398438 16.128906 12.226562 15.609375 12.738281 Z M 15.609375 12.738281 "/>
</g>
</svg>
