<?xml version="1.0" encoding="UTF-8"?>
<svg xmlns="http://www.w3.org/2000/svg" xmlns:xlink="http://www.w3.org/1999/xlink" width="16px" height="21px" viewBox="0 0 16 21" version="1.1">
<g id="surface1">
<path style=" stroke:none;fill-rule:nonzero;fill:rgb(0%,0%,0%);fill-opacity:1;" d="M 15.609375 10.113281 C 15.351562 10.371094 15.007812 10.5 14.667969 10.5 C 14.324219 10.5 13.984375 10.371094 13.722656 10.117188 L 9.332031 5.796875 L 9.332031 18.375 C 9.332031 19.101562 8.734375 19.652344 8.039062 19.652344 C 7.339844 19.652344 6.667969 19.101562 6.667969 18.375 L 6.667969 5.796875 L 2.277344 10.113281 C 1.753906 10.628906 0.910156 10.628906 0.390625 10.113281 C -0.128906 9.601562 -0.128906 8.769531 0.390625 8.257812 L 7.058594 1.695312 C 7.578125 1.183594 8.421875 1.183594 8.941406 1.695312 L 15.609375 8.257812 C 16.128906 8.773438 16.128906 9.601562 15.609375 10.113281 Z M 15.609375 10.113281 "/>
</g>
</svg>
