<?xml version="1.0" encoding="UTF-8"?>
<svg xmlns="http://www.w3.org/2000/svg" xmlns:xlink="http://www.w3.org/1999/xlink" width="20px" height="20px" viewBox="0 0 20 20" version="1.1">
<g id="surface1">
<path style=" stroke:none;fill-rule:nonzero;fill:rgb(0%,0%,0%);fill-opacity:1;" d="M 18.75 16.25 C 19.441406 16.25 20 16.808594 20 17.5 C 20 18.191406 19.441406 18.75 18.75 18.75 L 5.882812 18.75 C 5.222656 18.75 4.585938 18.488281 4.117188 18.019531 L 0.992188 14.894531 C 0.015625 13.917969 0.015625 12.332031 0.992188 11.355469 L 10.105469 2.242188 C 11.082031 1.265625 12.667969 1.265625 13.644531 2.242188 L 19.007812 7.605469 C 19.984375 8.582031 19.984375 10.167969 19.007812 11.144531 L 13.902344 16.25 Z M 10.367188 16.25 L 12.996094 13.621094 L 7.628906 8.253906 L 2.757812 13.125 L 5.882812 16.25 Z M 10.367188 16.25 "/>
</g>
</svg>
